<!-- Generator: Adobe Illustrator 21.0.0, SVG Export Plug-In  -->
<svg version="1.1"
	 xmlns="http://www.w3.org/2000/svg" xmlns:xlink="http://www.w3.org/1999/xlink" xmlns:a="http://ns.adobe.com/AdobeSVGViewerExtensions/3.0/"
	 x="0px" y="0px" width="1597px" height="1597px" viewBox="0 0 1597 1597" style="enable-background:new 0 0 1597 1597;"
	 xml:space="preserve">
<style type="text/css">
	.st0{fill:#EFE6E6;stroke:#000000;stroke-miterlimit:10;}
	.st1{fill:#13A8EA;}
	.st2{fill:none;stroke:#131414;stroke-width:4;stroke-miterlimit:10;}
	.st3{fill:#E9EFF2;}
	.st4{fill:#EFAE2E;}
	.st5{fill:#070707;}
	.st6{fill:#B26D09;}
	.st7{fill:none;stroke:#B26D09;stroke-miterlimit:10;}
	.st8{fill:#F7DD6F;}
	.st9{fill:#EDAB54;}
	.st10{fill:#6D4705;}
</style>
<defs>
</defs>
<circle class="st0" cx="798.5" cy="798.5" r="798"/>
<g id="Layer_26_copy">
	<g>
		<path d="M1100.666,174.218l-49.334-37.678l9.317-11.848l120.087,91.712l-9.317,11.848l-49.575-37.86l-75.548,96.065
			l-21.178-16.174L1100.666,174.218z"/>
	</g>
</g>
<g id="Layer_27_copy">
	<g>
		<path d="M1204.219,336.961c-24.517,28.296-56.723,27.265-80.153,7.708c-24.248-20.239-26.693-51.283-5.136-76.164
			c22.614-26.101,55.527-28.053,80.048-7.586C1224.043,281.841,1225.354,312.568,1204.219,336.961z M1131.811,278.836
			c-15.218,17.562-18.224,42.165,0.439,57.742c18.799,15.691,42.846,9.071,59.014-9.589c14.16-16.344,19.419-41.378-0.334-57.865
			C1171.313,252.75,1147.45,260.785,1131.811,278.836z"/>
	</g>
</g>
<g id="Layer_28_copy">
	<g>
		<path d="M1264.697,325.094l11.905,13.053l-73.337,62.893l39.411,43.209l-8.907,7.639l-51.316-56.262L1264.697,325.094z"/>
	</g>
</g>
<g id="Layer_29_copy">
	<g>
		<path d="M1331.191,496.766l-29.935-40.438l-32.219,22.001l33.362,45.068l-9.679,6.609l-43.303-58.496l89.364-61.024l41.589,56.181
			l-9.679,6.609l-31.649-42.752l-28.24,19.285l29.934,40.438L1331.191,496.766z"/>
	</g>
</g>
<g id="Layer_30_copy">
	<g>
		<path d="M1312.076,540.742c1.604,7.979,5.777,18.355,12.721,27.48c10.301,13.535,22.018,17.433,30.262,11.63
			c7.64-5.376,7.838-13.923,1.55-30.749c-8.003-20.058-8.962-35.265,2.558-43.372c12.731-8.96,32.258-2.384,47.419,17.54
			c7.986,10.493,11.833,19.463,13.243,25.476l-11.386,2.41c-1.091-4.371-3.875-12.922-10.935-22.199
			c-10.647-13.992-21.367-14.621-26.945-10.696c-7.639,5.377-6.651,14.258-0.254,31.474c7.859,21.093,7.903,34.607-4.101,43.056
			c-12.61,8.875-32.434,4.845-50.836-19.337c-7.522-9.886-13.437-22.305-14.692-29.827L1312.076,540.742z"/>
	</g>
</g>
<g id="Layer_12_copy">
	<path class="st1" d="M1029.905,818.914l-156.032,69.677c0,0,72.316,82.776,20.953,161.565l-56.371,43.257l65.341,159.552
		c0,0,138.163-68.479,164.037-187.686C1067.833,1065.279,1105.998,911.306,1029.905,818.914z"/>
	<line class="st1" x1="452.705" y1="1178.77" x2="496.972" y2="1167.167"/>
</g>
<g id="Layer_13_copy">
	<path class="st1" d="M904.064,1249.892l-44.521-169.03c0,0-93.767,63.009-163.952-0.074l-34.064-63.476l-168.993,45.638
		c0,0,46.165,150.576,160.577,192.948C653.11,1255.899,800.136,1315.487,904.064,1249.892z"/>
</g>
<g id="Layer_16_copy">
	<line class="st2" x1="527.989" y1="1140.878" x2="572.256" y2="1129.274"/>
	<line class="st2" x1="660.833" y1="1260.27" x2="688.291" y2="1223.661"/>
	<line class="st2" x1="871.381" y1="1268.61" x2="862.727" y2="1228.744"/>
	<line class="st2" x1="954.457" y1="1223.744" x2="932.943" y2="1186.059"/>
	<line class="st2" x1="1054.263" y1="1113.64" x2="997.722" y2="1093.956"/>
	<line class="st2" x1="1078.154" y1="1001.671" x2="1035.614" y2="994.454"/>
	<line class="st2" x1="1063.23" y1="873.259" x2="1020.928" y2="882.928"/>
	<line class="st2" x1="934.943" y1="905.097" x2="894.212" y2="920.061"/>
	<line class="st2" x1="955.574" y1="978.976" x2="912.39" y2="978.718"/>
	<line class="st2" x1="954.92" y1="1062.995" x2="899.088" y2="1035.073"/>
	<line class="st2" x1="885.036" y1="1112.798" x2="863.523" y2="1075.114"/>
	<line class="st2" x1="774.742" y1="1283.98" x2="777.232" y2="1224.262"/>
	<line class="st2" x1="639.637" y1="1075.416" x2="679.291" y2="1052.574"/>
	<line class="st2" x1="778.497" y1="1166.98" x2="780.987" y2="1107.262"/>
	<line class="st2" x1="586.56" y1="1216.382" x2="630.413" y2="1175.77"/>
	<line class="st2" x1="685.697" y1="1145.345" x2="723.01" y2="1098.653"/>
</g>
<g id="Layer_17_copy">
	<path class="st2" d="M560.726,1146.139c-24.729,7.12-24.729,7.12-24.729,7.12"/>
	<path class="st2" d="M567.016,1161.035c-22.019,6.224-22.019,6.224-22.019,6.224"/>
	<path class="st2" d="M582.269,1176.415c-24.305,6.73-24.305,6.73-24.305,6.73"/>
	<path class="st2" d="M592.558,1188.479c-22.882,10.603-22.882,10.603-22.882,10.603"/>
	<path class="st2" d="M686.486,1064.314c-22.391,12.684-22.391,12.684-22.391,12.684"/>
	<path class="st2" d="M692.486,1076.314c-22.391,12.684-22.391,12.684-22.391,12.684"/>
	<path class="st2" d="M700.026,1084.563c-21.471,14.185-21.471,14.185-21.471,14.185"/>
	<path class="st2" d="M618.027,1207.233c-13.82,21.095-13.82,21.095-13.82,21.095"/>
	<path class="st2" d="M631.272,1216.464c-13.022,21.597-13.022,21.597-13.022,21.597"/>
	<path class="st2" d="M645.941,1222.945c-13.022,21.598-13.022,21.598-13.022,21.598"/>
	<path class="st2" d="M709.034,1091.803c-21.471,14.185-21.471,14.185-21.471,14.185"/>
	<path class="st2" d="M659.962,1232.167c-13.022,21.598-13.022,21.598-13.022,21.598"/>
	<path class="st2" d="M696.26,1240.464c-9.498,23.665-9.498,23.665-9.498,23.665"/>
	<path class="st2" d="M715.132,1246.685c-8.378,23.987-8.378,23.987-8.378,23.987"/>
	<path class="st2" d="M734.792,1249.901c-8.378,23.987-8.378,23.987-8.378,23.987"/>
	<path class="st2" d="M754.588,1255.945c-8.378,23.987-8.378,23.987-8.378,23.987"/>
	<path class="st2" d="M793.014,1253.048c0.37,25.498,0.37,25.498,0.37,25.498"/>
	<path class="st2" d="M812.825,1252.504c1.527,25.362,1.527,25.362,1.527,25.362"/>
	<path class="st2" d="M832.203,1250.884c1.527,25.362,1.527,25.362,1.527,25.362"/>
	<path class="st2" d="M852.798,1244.821c1.527,25.362,1.527,25.362,1.527,25.362"/>
	<path class="st2" d="M731.533,1102.361c-8.817,21.983-8.817,21.983-8.817,21.983"/>
	<path class="st2" d="M749.265,1107.052c-7.765,22.277-7.765,22.277-7.765,22.277"/>
	<path class="st2" d="M767.723,1110.955c-7.765,22.277-7.765,22.277-7.765,22.277"/>
	<path class="st2" d="M796.823,1108.087c6.778,24.583,6.778,24.583,6.778,24.583"/>
	<path class="st2" d="M815.607,1101.604c7.864,24.161,7.864,24.161,7.864,24.161"/>
	<path class="st2" d="M833.197,1095.254c7.864,24.161,7.864,24.161,7.864,24.161"/>
	<path class="st2" d="M852.61,1085.072c7.864,24.161,7.864,24.161,7.864,24.161"/>
	<path class="st2" d="M876.558,1237.188c9.108,23.818,9.108,23.818,9.108,23.818"/>
	<path class="st2" d="M891.754,1230.313c12.669,22.025,12.669,22.025,12.669,22.025"/>
	<path class="st2" d="M906.794,1221.562c15.49,20.14,15.49,20.14,15.49,20.14"/>
	<path class="st2" d="M921.688,1210.302c15.49,20.14,15.49,20.14,15.49,20.14"/>
	<path class="st2" d="M957.93,1185.683c16.753,19.225,16.753,19.225,16.753,19.225"/>
	<path class="st2" d="M975.564,1170.51c16.728,19.124,16.728,19.124,16.728,19.124"/>
	<path class="st2" d="M989.716,1154.231c20.059,15.595,20.059,15.595,20.059,15.595"/>
	<path class="st2" d="M1005.467,1135.259c20.64,14.817,20.64,14.817,20.64,14.817"/>
	<path class="st2" d="M874.524,1066.768c12.605,20.053,12.605,20.053,12.605,20.053"/>
	<path class="st2" d="M890.74,1053.179c13.461,19.374,13.461,19.374,13.461,19.374"/>
	<path class="st2" d="M941.665,998.895c-27.945-0.227-27.945-0.227-27.945-0.227"/>
	<path class="st2" d="M934.834,1015.99c-23.101-4.788-23.101-4.788-23.101-4.788"/>
	<path class="st2" d="M929.753,1033.433c-21.603-9.481-21.603-9.481-21.603-9.481"/>
	<path class="st2" d="M1034.706,1086.865c24.565,6.843,24.565,6.843,24.565,6.843"/>
	<path class="st2" d="M1041.66,1066.913c25.095,3.978,25.095,3.978,25.095,3.978"/>
	<path class="st2" d="M1046.144,1043.124c24.853,5.284,24.853,5.284,24.853,5.284"/>
	<path class="st2" d="M1051.044,1018.181c25.036,4.331,25.036,4.331,25.036,4.331"/>
	<path class="st2" d="M1052.501,976.842c25.484,0.916,25.484,0.916,25.484,0.916"/>
	<path class="st2" d="M1050.602,954.818c25.33-1.993,25.33-1.993,25.33-1.993"/>
	<path class="st2" d="M1048.405,930.639c25.399-0.667,25.399-0.667,25.399-0.667"/>
	<path class="st2" d="M1046.343,905.242c25.355-1.636,25.355-1.636,25.355-1.636"/>
	<path class="st2" d="M932.615,926.557c-26.596,8.581-26.596,8.581-26.596,8.581"/>
	<path class="st2" d="M933.729,944.655c-22.629,6.67-22.629,6.67-22.629,6.67"/>
	<path class="st2" d="M938.473,962.433c-23.521,1.826-23.521,1.826-23.521,1.826"/>
</g>
<g id="Layer_14_copy">
	<circle class="st3" cx="588.509" cy="1077.656" r="26.253"/>
</g>
<g id="Layer_19_copy">
	<g>
		<path d="M250.641,592.994c-20.017-1.655-44.076-3.645-61.7-6.433l-0.145,0.718c15.518,7.906,31.847,17.16,49.782,28.125
			l63.086,38.422l-3.165,15.808l-72.757,16.368c-21.521,4.782-41.119,8.61-58.86,10.733l-0.097,0.479
			c17.576,3.028,41.109,7.653,62.069,12.154l59.937,13.079l-3.98,19.879L145.27,710.622l5.323-26.586l74.099-17.653
			c18.804-4.188,35.475-7.452,51.017-9.4l0.144-0.718c-13.491-6.135-27.908-14.128-44.351-23.892l-62.83-38.631l5.323-26.586
			l143.809,10.389l-4.076,20.358L250.641,592.994z"/>
	</g>
</g>
<g id="Layer_20_copy">
	<g>
		<path d="M309.926,440.35c33.786,14.274,41.682,43.021,29.46,68.858c-12.647,26.737-41.627,37.023-71.337,24.471
			c-31.165-13.166-42.104-41.758-29.313-68.796C251.809,437.245,280.798,428.044,309.926,440.35z M274.367,519.587
			c20.972,8.86,45.301,5.081,55.035-15.499c9.806-20.729-3.148-40.26-25.431-49.673c-19.515-8.244-44.877-6.343-55.18,15.438
			C238.559,491.483,252.813,510.481,274.367,519.587z"/>
	</g>
</g>
<g id="Layer_21_copy">
	<g>
		<path d="M287.323,384.868c3.798-7.712,10.299-18.012,17.133-27.371c10.594-14.507,19.721-22.261,29.632-25.225
			c7.919-2.472,16.288-1.092,23.302,3.817c12.005,8.401,13.584,22.707,8.735,36.048l0.403,0.282
			c8.352-6.411,18.357-6.715,29.621-2.603c15.186,5.443,25.775,9.084,30.877,9.354l-10.251,14.039
			c-3.815-0.078-13.348-3.214-26.843-8.181c-14.822-5.66-23.645-3.349-33.046,8.691l-9.341,12.791l39.386,27.567l-9.909,13.571
			L287.323,384.868z M338.643,400.28l10.138-13.882c10.594-14.507,10.435-28.525,0.048-35.794
			c-11.734-8.213-24.036-1.974-34.65,12.283c-4.784,6.551-7.662,11.608-8.718,14.169L338.643,400.28z"/>
	</g>
	<g>
		<path d="M362.386,297.021c5.229-6.819,13.555-15.74,21.988-23.729c13.071-12.382,23.309-18.557,33.243-20.094
			c7.963-1.326,15.513,1.053,21.029,6.601c9.442,9.496,7.831,23.248,0.398,35.261l0.318,0.32c9.218-5.003,18.668-4.009,28.344,1.33
			c13.065,7.101,22.21,11.906,26.936,12.815l-12.649,11.983c-3.562-0.562-11.824-4.754-23.407-11.187
			c-12.678-7.26-21.451-6.202-32.872,3.997l-11.526,10.917l30.979,31.156l-12.229,11.583L362.386,297.021z M407.186,318.193
			l12.51-11.85c13.071-12.382,15.953-25.679,7.784-33.895c-9.23-9.283-22.117-4.95-35.154,7.193
			c-5.903,5.592-9.696,10.013-11.238,12.304L407.186,318.193z"/>
	</g>
</g>
<g id="Layer_23_copy">
	<g>
		<path d="M450.012,210.225l73.463,73.129l-9.207,8.806l-73.463-73.129L450.012,210.225z"/>
	</g>
</g>
<g id="Layer_24_copy">
	<g>
		<path d="M536.213,247.919c9.069-0.391,21.037-3.132,31.835-9.05c16.018-8.778,21.361-20.677,15.55-30.471
			c-5.383-9.073-14.939-10.707-34.307-6.772c-23.13,5.232-40.239,3.73-48.357-9.952c-8.972-15.122,0.021-34.938,23.598-47.858
			c12.418-6.806,22.785-9.433,29.636-9.943l1.748,12.593c-4.984,0.441-14.793,2-25.771,8.016
			c-16.558,9.074-18.157,20.447-14.227,27.072c5.384,9.074,15.411,9.495,35.225,5.507c24.277-4.907,39.416-2.706,47.875,11.552
			c8.887,14.979,2.719,35.536-25.897,51.218c-11.699,6.411-26.1,10.678-34.63,10.771L536.213,247.919z"/>
	</g>
</g>
<g id="Layer_32_copy">
	<g>
		<path d="M216.77,967.218l-85.538,37.615l-4.514-10.265l85.539-37.615L216.77,967.218z"/>
	</g>
	<g>
		<path d="M428.446,1310.392l-29.558-23.061l5.284-6.772l71.948,56.133l-5.284,6.772l-29.702-23.173l-42.845,54.917l-12.688-9.899
			L428.446,1310.392z"/>
	</g>
	<g>
		<path d="M641.609,1411.536l-37.161-4.945l1.133-8.516l90.457,12.037l-1.133,8.516l-37.343-4.97l-9.188,69.045l-15.953-2.123
			L641.609,1411.536z"/>
	</g>
</g>
<g id="Layer_36_copy">
	<g>
		<path d="M485.044,1340.473c6.177,2.533,14.558,7.017,22.259,11.803c11.938,7.418,18.64,14.045,21.798,21.514
			c2.599,5.963,2.333,12.463-0.725,18.098c-5.232,9.646-15.889,11.572-26.413,8.511l-0.177,0.325
			c5.617,6.098,6.773,13.772,4.711,22.634c-2.702,11.941-4.471,20.262-4.202,24.196l-11.552-7.179
			c-0.295-2.937,1.189-10.418,3.689-21.037c2.9-11.673,0.338-18.337-9.626-24.964l-10.526-6.54l-17.168,31.644l-11.167-6.939
			L485.044,1340.473z M478.162,1380.681l11.424,7.099c11.938,7.418,22.509,6.597,27.036-1.748
			c5.115-9.428-0.736-18.57-12.487-26.017c-5.392-3.351-9.477-5.31-11.51-5.993L478.162,1380.681z"/>
	</g>
</g>
<g id="Layer_33_copy">
	<g>
		<path d="M236.334,1016.987l5.683,12.625l-72.787,32.763l18.812,41.792l-8.841,3.979l-24.495-54.417L236.334,1016.987z"/>
	</g>
	<g>
		<path d="M275.416,1091.497l5.951,12.501l-72.07,34.309l19.699,41.381l-8.754,4.168l-25.65-53.882L275.416,1091.497z"/>
	</g>
</g>
<g id="Layer_37_copy">
	<g>
		<path d="M544.836,1433.804l-16.728,19.853l-12.788-4.33l54.1-62.806l14.92,5.052l11.124,84.891l-13.215-4.475l-3.451-26.686
			L544.836,1433.804z M578.416,1436.989l-3.174-24.425c-0.725-5.541-0.865-10.404-1.038-15.156l-0.285-0.096
			c-2.701,3.899-5.575,7.861-8.733,11.727l-15.616,18.183L578.416,1436.989z"/>
	</g>
</g>
<g id="Layer_38_copy">
	<g>
		<path d="M773.629,1444.529c1.642,26.857-14.882,42.206-36.1,43.559c-21.958,1.399-38.354-13.593-39.798-37.209
			c-1.514-24.773,13.901-42.026,36.107-43.442C756.536,1405.99,772.214,1421.377,773.629,1444.529z M709.19,1449.916
			c1.019,16.67,11.554,30.99,28.454,29.913c17.024-1.086,25.747-16.401,24.665-34.113c-0.948-15.513-10.574-31.169-28.461-30.028
			C716.083,1416.819,708.142,1432.783,709.19,1449.916z"/>
		<path d="M785.302,1406.48c5.364-1.388,13.101-2.463,20.502-2.935c11.473-0.731,18.995,0.765,24.444,4.834
			c4.407,3.205,7.076,8.381,7.444,14.4c0.63,10.303-5.86,17.574-14.45,20.911l0.021,0.347c6.542,1.675,10.706,6.988,13.175,14.966
			c3.38,10.708,5.813,18.108,7.724,21.008l-11.102,0.708c-1.492-2.114-3.753-8.71-6.69-18.284
			c-3.126-10.609-7.813-14.378-17.581-14.104l-10.116,0.645l2.066,33.804l-10.731,0.685L785.302,1406.48z M798.206,1441.335
			l10.979-0.699c11.473-0.731,18.391-7.099,17.846-16.013c-0.616-10.072-8.657-13.976-20.013-13.368
			c-5.182,0.33-8.854,1.029-10.553,1.603L798.206,1441.335z"/>
	</g>
</g>
<g id="Layer_34_copy">
	<g>
		<path d="M305.62,1160.003l-43.537,27.907c-16.477,10.562-17.807,23.857-10.213,35.705c8.438,13.163,21.04,16.972,37.298,6.55
			l43.537-27.907l7.425,11.584l-42.883,27.488c-22.587,14.478-41.059,6.075-53.378-13.144c-11.644-18.166-11.799-37.382,11.006-52
			l43.319-27.768L305.62,1160.003z"/>
	</g>
</g>
<g id="Layer_35_copy">
	<g>
		<path d="M309.893,1279.127c1.717,6.539,5.634,14.893,11.72,22.004c9.027,10.551,18.686,12.967,25.027,7.539
			c5.875-5.025,5.581-12.168-0.385-25.748c-7.52-16.152-9.102-28.762-0.242-36.344c9.792-8.377,25.892-4.289,39.18,11.242
			c6.999,8.18,10.578,15.383,12.036,20.297l-9.057,2.82c-1.112-3.566-3.812-10.496-9.999-17.729
			c-9.332-10.906-18.011-10.666-22.301-6.996c-5.875,5.027-4.608,12.361,1.468,26.26c7.459,17.025,8.214,28.291-1.019,36.189
			c-9.7,8.301-25.904,6.354-42.032-12.496c-6.593-7.705-12.023-17.639-13.436-23.822L309.893,1279.127z"/>
	</g>
</g>
<g id="Layer_40_copy">
	<g>
		<path d="M954.076,1408.317c6.734-3.897,14.909-8.128,24.177-12.008c16.79-7.029,30.136-8.71,40.699-5.724
			c10.698,2.928,19.143,9.9,24.373,22.393c5.278,12.607,5.029,24.835-0.457,35.484c-5.439,10.763-17.777,20.508-35.373,27.875
			c-8.326,3.486-15.455,6.067-21.604,7.969L954.076,1408.317z M994.36,1471.734c3.146-0.778,7.493-2.463,12.061-4.375
			c24.982-10.46,33.559-28.06,24.825-48.919c-7.495-18.279-24.431-24.794-49.146-14.447c-6.044,2.53-10.418,4.901-13.268,6.768
			L994.36,1471.734z"/>
	</g>
</g>
<g id="Layer_41_copy">
	<g>
		<path d="M1117.936,1381.404l-39.771,22.093l12.947,23.306l44.324-24.622l3.889,7.002l-57.531,31.958l-35.907-64.642l55.254-30.693
			l3.889,7.001l-42.048,23.357l11.349,20.429l39.771-22.093L1117.936,1381.404z"/>
	</g>
</g>
<g id="Layer_46_copy">
	<g>
		<path d="M1421.641,1039.018l-21.68,39.998l23.438,12.704l24.163-44.577l7.041,3.816l-31.361,57.858l-65.01-35.236l30.12-55.569
			l7.041,3.816l-22.922,42.287l20.545,11.137l21.681-39.998L1421.641,1039.018z"/>
	</g>
</g>
<g id="Layer_42_copy">
	<g>
		<path d="M1156.146,1394.326c7.652-1.953,20.038-7.043,30.237-14.244c14.835-10.477,18.728-19.722,14.9-25.142
			c-4.019-5.69-12.015-4.715-29.377,2.673c-23.132,10.041-37.229,10.248-42.778,2.389c-7.463-10.568,1.018-29.551,25.125-46.574
			c11.358-8.02,22.666-13.162,30.455-15.413l1.023,12.272c-5.552,1.484-15.195,5.045-25.627,12.41
			c-12.054,8.512-15.906,17.323-12.461,22.201c3.826,5.419,12.271,3.111,29.171-3.949c22.532-9.414,36.519-10.762,43.406-1.006
			c8.133,11.516-1.427,30.448-28.083,49.271c-12.286,8.676-24.889,14.936-34.682,17.791L1156.146,1394.326z"/>
	</g>
</g>
<g id="Layer_43_copy">
	<g>
		<path d="M1217.564,1260.401l48.959,70.214l-13.778,9.607l-48.959-70.214L1217.564,1260.401z"/>
	</g>
</g>
<g id="Layer_44_copy">
	<g>
		<path d="M1337.174,1244.593c-2.32,5.029-7.316,14.572-15.668,23.583c-9.361,10.1-19.412,16.247-31.141,17.525
			c-10.363,1.071-21.768-2.873-31.219-11.633c-18-16.869-18.564-42.798,2.178-65.175c7.158-7.724,14.287-12.345,18.209-14.048
			l4.463,8.002c-4.744,2.23-10.043,5.602-16.285,12.334c-15.051,16.238-15.691,35.344-0.48,49.443
			c15.391,14.266,33.936,12.494,48.344-3.051c5.232-5.645,8.092-10.173,9.027-12.987l-18.092-16.77l-12.574,13.565l-6.299-5.841
			l20.375-21.981L1337.174,1244.593z"/>
	</g>
</g>
<g id="Layer_45_copy">
	<g>
		<path d="M1371.95,1219.943l-76.745-53.814l8.874-12.654l59.006-1.55c13.666-0.353,25.394,0.12,36.239,1.366l0.072-0.347
			c-10.994-6.12-20.52-12.4-32.475-20.783l-32.11-22.516l7.66-10.924l76.745,53.813l-8.221,11.723l-58.932,1.203
			c-12.93,0.273-25.901,0.119-37.389-1.18l-0.167,0.479c10.146,6.121,19.556,12.321,32.309,21.264l32.793,22.995L1371.95,1219.943z"
			/>
	</g>
</g>
<g id="Layer_47_copy">
	<g>
		<path d="M1385.909,995.074c0.046-8.862,1.137-21.427,2.798-33.319c2.573-18.434,6.449-30.062,12.562-37.792
			c4.849-6.271,11.367-9.318,18.143-8.507c11.595,1.391,17.73,13.412,18.893,27.859l0.391,0.047
			c3.783-10.025,10.895-15.42,20.458-17.498c12.854-2.893,21.766-5.049,25.54-7.418l-2.491,17.84
			c-2.779,1.883-10.751,3.95-22.22,6.404c-12.67,2.512-18.226,9.101-20.803,24.713l-2.269,16.253l38.041,4.561l-2.408,17.245
			L1385.909,995.074z M1428.313,982.625l2.463-17.641c2.573-18.434-2.438-30.925-12.47-32.128
			c-11.334-1.358-18.027,10.536-20.704,28.755c-1.162,8.325-1.472,14.334-1.337,17.172L1428.313,982.625z"/>
	</g>
</g>
<g id="Layer_2_copy">
	<path class="st4" d="M841.97,416.666l260.744,2.861L883.262,274.543c0,0,5.087,41.049-21.523,37.483
		c0,0,31.139,46.536-20.088,69.141C841.651,381.167,868.006,407.569,841.97,416.666z"/>
</g>
<g id="Layer_3_copy">
	<path class="st5" d="M1040.442,417.536l63.708,0.791l-53.71-37.452C1050.441,380.875,1028.786,397.772,1040.442,417.536z"/>
</g>
<g id="Layer_5_copy">
	<path class="st6" d="M1036.298,402.396l-192.746-24.76c0,0,59.175-24.462,19.53-67.22l178.238,74.695L1036.298,402.396z"/>
	<path class="st7" d="M929.972,390.738"/>
</g>
<g id="Layer_6_copy">
	<path class="st6" d="M831.834,419.969c0,0-130.911-29.704-159.745,91.046c0,0-56.592,123.099,108.643,156.527
		c0,0,169.569,47.184,192.733,89.32c0,0,33.948,26.525,52.712,69.465l-151.129,68.557c0,0-25.265-20.421-216.896-92.174
		c0,0-163.795-110.07-157.138-247.677c0,0,0.155-158.24,114.858-251.96c0,0,111.848-69.556,219.186-51.908
		c0,0,40.795,11.853,46.326,13.459c5.53,1.607,20.884,50.846-14.787,50.895c0,0,35.477,43.631-18.414,63.379
		C848.183,378.9,876.137,403.683,831.834,419.969z"/>
</g>
<g id="Layer_8_copy">
	<path class="st8" d="M839.029,408.718c0,0-139.944-25.652-168.136,101.223c0,0-43.005,150.441,220.042,192.564
		c0,0,91.575,33.038,128.336,93.028l22.516,34.412l-42.597,19.782c0,0-39.926-80.205-159.39-123.489
		c0,0-134.651-13.395-181.406-76.288c0,0-91.764-146.719,19.231-245.248c0,0,92.96-73.755,170.893-36.105
		C848.518,368.597,883.05,391.493,839.029,408.718z"/>
</g>
<g id="Layer_7_copy">
	<path class="st9" d="M866.597,315.52c0,0,33.424,53.448-28.885,60.723c0,0-126.511-28.61-182.595,58.959
		c0,0-89.81,175.525,51.369,245.055c0,0,186.791,46.124,218.166,85.788c0,0,65.529,55.697,65.971,82.3l-65.841,29.748l-9.543-17.364
		c0,0-30.796-75.818-213.326-108.485c0,0-153.325-62.876-146.908-197.46c0,0,0.13-183.252,135.033-239.775
		C690.037,315.01,806.121,277.585,866.597,315.52z"/>
</g>
<g id="Layer_4_copy">
	<path class="st10" d="M1044.899,389.127l-181.65-80.774c0,0,47.826-11.769,13.127-45.183L1049.9,371.915L1044.899,389.127z"/>
</g>
</svg>